<?xml version="1.0" standalone="no"?>
<!DOCTYPE svg PUBLIC "-//W3C//DTD SVG 20010904//EN"
 "http://www.w3.org/TR/2001/REC-SVG-20010904/DTD/svg10.dtd">
<svg version="1.0" xmlns="http://www.w3.org/2000/svg"
 width="4096.000000pt" height="4096.000000pt" viewBox="0 0 4096.000000 4096.000000"
 preserveAspectRatio="xMidYMid meet">
<metadata>
Created by potrace 1.15, written by Peter Selinger 2001-2017
</metadata>
<g transform="translate(0.000000,4096.000000) scale(0.100000,-0.100000)"
fill="#000000" stroke="none">
<path d="M20265 33323 c-1268 -77 -2388 -820 -2958 -1963 -233 -465 -345 -890
-379 -1436 -29 -479 72 -982 292 -1449 25 -55 260 -480 522 -945 261 -465 600
-1068 753 -1340 152 -272 308 -549 345 -615 37 -66 152 -271 255 -455 103
-184 218 -389 255 -455 38 -66 101 -179 142 -252 395 -708 974 -1733 978
-1733 4 0 512 899 1773 3145 220 391 430 764 467 830 37 66 158 282 269 480
112 198 253 450 315 560 62 110 164 290 226 400 62 110 132 234 156 275 242
420 355 862 358 1400 1 393 -49 702 -178 1095 -179 542 -471 1013 -885 1425
-556 555 -1248 902 -2001 1004 -215 29 -507 41 -705 29z m675 -668 c388 -68
752 -216 1070 -434 206 -141 468 -388 613 -578 545 -715 706 -1633 435 -2481
-282 -883 -1007 -1568 -1904 -1798 -241 -61 -386 -78 -674 -78 -215 0 -278 4
-399 22 -291 46 -529 121 -796 252 -269 132 -505 300 -715 510 -689 687 -954
1670 -705 2617 88 334 253 668 472 956 145 190 407 437 613 578 303 209 667
360 1019 424 215 40 270 44 551 41 235 -3 282 -6 420 -31z"/>
<path d="M20310 31943 c-113 -46 -293 -121 -400 -165 -107 -44 -196 -81 -197
-82 -2 -2 29 -79 357 -876 26 -63 75 -184 110 -267 34 -84 60 -158 57 -166 -4
-10 -338 -156 -554 -242 -24 -10 -43 -20 -43 -24 0 -3 173 -247 383 -541 210
-295 499 -700 641 -900 515 -725 561 -788 563 -786 3 2 -28 175 -231 1305 -86
475 -156 868 -156 875 0 6 33 24 73 40 88 35 341 139 345 142 3 2 -110 283
-188 469 -32 75 -370 900 -473 1152 -34 84 -66 152 -72 152 -5 0 -102 -39
-215 -86z"/>
<path d="M16310 10125 l0 -1295 280 0 280 0 0 415 c0 228 3 415 8 415 7 0 168
-234 308 -447 174 -264 250 -376 259 -379 6 -3 162 -3 347 -2 l337 3 -60 80
c-79 105 -79 106 -147 205 -32 47 -85 121 -118 166 -32 44 -101 139 -153 210
-52 71 -119 162 -148 201 l-54 72 61 73 c34 40 81 95 104 122 22 27 61 72 86
101 25 28 65 75 90 105 25 30 88 104 140 165 52 60 112 132 133 158 l39 47
-338 -2 -338 -3 -79 -100 c-43 -55 -124 -158 -180 -229 -56 -71 -142 -180
-191 -243 -49 -62 -92 -113 -97 -113 -5 0 -9 343 -9 785 l0 785 -280 0 -280 0
0 -1295z"/>
<path d="M24630 10125 l0 -1295 275 0 275 0 0 478 c0 303 4 500 11 538 31 171
144 274 298 274 76 0 151 -36 185 -87 61 -93 60 -79 64 -665 l3 -538 280 0
280 0 -3 603 -4 602 -26 98 c-33 120 -76 201 -143 271 -100 105 -218 162 -360
174 -245 21 -417 -49 -557 -228 l-27 -35 -1 553 0 552 -275 0 -275 0 0 -1295z"/>
<path d="M10450 10040 l0 -1210 290 0 290 0 0 460 0 460 168 0 c278 0 474 27
623 86 320 125 480 385 455 739 -13 189 -68 318 -186 436 -125 125 -298 199
-535 228 -54 7 -290 11 -597 11 l-508 0 0 -1210z m937 740 c125 -13 190 -39
245 -98 116 -124 77 -336 -75 -414 -78 -40 -136 -49 -334 -55 l-193 -6 0 292
0 291 133 0 c72 0 173 -5 224 -10z"/>
<path d="M22470 10040 l0 -1210 290 0 290 0 0 460 0 460 168 0 c318 0 520 34
687 115 153 75 257 174 324 310 49 99 65 182 65 340 0 232 -48 360 -189 500
-102 102 -202 154 -380 199 -122 30 -243 36 -747 36 l-508 0 0 -1210z m939
740 c126 -14 177 -35 237 -94 60 -61 81 -123 70 -214 -22 -188 -168 -262 -517
-262 l-149 0 0 290 0 290 138 0 c75 0 175 -5 221 -10z"/>
<path d="M26750 10040 l0 -1210 484 0 c618 0 748 13 989 96 180 63 294 132
424 257 170 162 282 351 330 557 25 104 27 133 27 315 1 151 -4 221 -17 286
-105 521 -489 830 -1119 898 -56 6 -315 11 -608 11 l-510 0 0 -1210z m1011
709 c328 -42 526 -182 610 -431 48 -145 48 -382 -2 -531 -29 -88 -100 -198
-166 -256 -151 -135 -363 -191 -723 -191 l-160 0 0 710 0 710 178 0 c99 0 217
-5 263 -11z"/>
<path d="M20370 10760 l0 -220 -135 0 -135 0 0 -210 0 -210 134 0 134 0 5
-437 c3 -374 7 -448 22 -508 48 -192 163 -309 355 -361 92 -25 325 -25 440 -1
46 10 88 21 92 23 4 3 8 99 8 213 l0 208 -52 -14 c-70 -19 -184 -12 -234 14
-83 42 -94 105 -94 529 l0 334 200 0 200 0 0 210 0 210 -200 0 -201 0 1 218 2
217 -271 3 -271 2 0 -220z"/>
<path d="M13103 10575 c-158 -29 -294 -87 -414 -177 -104 -78 -180 -171 -239
-293 -76 -153 -85 -199 -85 -410 0 -157 3 -190 23 -258 27 -93 77 -195 143
-293 221 -324 715 -456 1129 -300 154 58 311 171 381 274 18 26 46 67 62 90
42 62 93 188 113 279 26 120 23 324 -5 438 -87 344 -358 585 -730 650 -101 18
-280 18 -378 0z m320 -466 c161 -54 264 -200 274 -389 8 -148 -38 -271 -137
-364 -60 -56 -112 -81 -200 -95 -254 -41 -461 150 -463 429 -1 106 23 191 74
271 92 142 283 205 452 148z"/>
<path d="M15258 10576 c-262 -47 -474 -180 -608 -383 -100 -151 -140 -294
-140 -501 0 -223 41 -368 146 -520 24 -35 44 -67 44 -71 0 -12 107 -111 167
-154 70 -51 183 -102 295 -133 113 -31 338 -43 458 -25 157 24 293 77 398 155
l63 47 -19 27 c-11 15 -29 36 -41 46 -12 11 -21 23 -21 28 0 5 -51 71 -112
147 l-112 139 -43 -35 c-98 -80 -284 -110 -403 -64 -159 60 -248 195 -258 388
-3 74 0 105 16 160 38 125 113 214 222 266 57 28 75 31 150 31 102 -1 174 -26
248 -84 28 -22 52 -40 55 -40 3 0 62 66 131 148 68 81 139 163 156 182 l32 35
-44 37 c-64 56 -210 125 -323 154 -124 32 -336 41 -457 20z"/>
<path d="M18923 10576 c-101 -19 -166 -42 -263 -92 -169 -88 -286 -207 -369
-379 -69 -140 -83 -201 -88 -387 -8 -246 28 -381 151 -569 112 -170 268 -275
506 -340 55 -15 118 -22 235 -26 138 -4 174 -2 265 17 181 37 306 101 434 220
73 69 104 116 88 132 -6 6 -91 61 -189 123 l-178 113 -52 -50 c-102 -95 -255
-141 -393 -118 -171 29 -315 149 -336 279 l-7 41 618 0 618 0 -6 163 c-4 128
-10 182 -30 258 -81 309 -287 524 -576 601 -99 26 -325 33 -428 14z m349 -399
c96 -44 160 -135 174 -244 l7 -53 -363 0 -363 0 6 39 c11 87 81 183 172 236
102 60 264 70 367 22z"/>
<path d="M29830 10575 c-216 -41 -394 -155 -472 -301 -79 -148 -77 -361 4
-489 84 -132 190 -191 471 -266 188 -50 250 -77 277 -121 66 -109 -24 -208
-190 -208 -128 0 -242 44 -355 136 l-58 48 -75 -80 c-41 -43 -110 -119 -153
-169 l-79 -90 37 -32 c149 -128 384 -210 633 -220 398 -16 664 117 762 383 30
81 32 282 5 362 -21 58 -97 160 -149 199 -101 75 -181 107 -421 169 -208 53
-257 84 -257 160 0 34 26 81 53 96 127 72 317 41 470 -76 l46 -35 151 156
c170 175 165 159 67 225 -153 104 -332 157 -552 163 -96 3 -163 0 -215 -10z"/>
</g>
</svg>
